<svg width="93" height="55" viewBox="0 0 93 55" fill="none" xmlns="http://www.w3.org/2000/svg">
<path d="M35.4367 48.2903C35.5782 48.1489 35.5782 48.1489 35.5782 48.0727C35.5782 47.9965 35.5172 47.9421 35.3758 47.9421H34.4554C34.3226 47.9421 34.2726 47.9813 34.2726 48.0727C34.2738 48.1181 34.2916 48.1615 34.3226 48.1945L34.3727 48.2555L34.4227 48.3055C34.4435 48.3643 34.4545 48.426 34.4554 48.4883V53.5735C34.4554 53.6845 34.4336 53.7345 34.3945 53.7759C34.2617 53.9173 34.2617 53.9173 34.2617 53.9782C34.2617 54.0805 34.3226 54.1197 34.4554 54.1197H35.3758C35.5085 54.1197 35.5673 54.0805 35.5673 53.9869C35.5676 53.9646 35.5633 53.9425 35.5547 53.9219C35.5461 53.9013 35.5333 53.8827 35.5172 53.8672C35.4806 53.8333 35.4471 53.7962 35.4171 53.7563C35.3884 53.6997 35.3742 53.6369 35.3758 53.5735V48.8169C35.3758 48.3708 35.3758 48.3621 35.4367 48.2903Z" fill="#ED2024"/>
<path d="M28.4485 48.2903C28.5899 48.1489 28.5899 48.1489 28.5899 48.0727C28.5899 47.9965 28.5311 47.9421 28.3875 47.9421H27.4671C27.3344 47.9421 27.2843 47.9813 27.2843 48.0727C27.2855 48.1181 27.3033 48.1615 27.3344 48.1945L27.3866 48.2555L27.4366 48.3055C27.4554 48.3647 27.4657 48.4262 27.4671 48.4883V53.5735C27.4671 53.6845 27.4475 53.7345 27.4062 53.7759C27.2734 53.9173 27.2734 53.9173 27.2734 53.9782C27.2734 54.0805 27.3344 54.1197 27.4671 54.1197H28.3875C28.5203 54.1197 28.5812 54.0805 28.5812 53.9869C28.5815 53.9646 28.5772 53.9425 28.5686 53.9219C28.56 53.9013 28.5472 53.8827 28.5311 53.8672C28.4945 53.8327 28.4603 53.7956 28.4289 53.7563C28.4002 53.6997 28.386 53.6369 28.3875 53.5735V48.8169C28.3875 48.3708 28.3875 48.3621 28.4485 48.2903Z" fill="#ED2024"/>
<path d="M33.1601 48.2903C33.2907 48.1489 33.2907 48.1489 33.2907 48.0727C33.2907 47.9965 33.2298 47.9421 33.1101 47.9421H32.1766C32.0547 47.9421 31.996 47.9813 31.996 48.0727C31.9972 48.1181 32.015 48.1615 32.046 48.1945L32.1461 48.3055C32.167 48.3642 32.1773 48.4261 32.1766 48.4883V49.5001C32.1766 49.622 32.1461 49.6938 32.0961 49.6938C32.0615 49.6847 32.0293 49.6683 32.0016 49.6458C31.9738 49.6233 31.9511 49.5951 31.9351 49.5632L30.8906 48.1945C30.7078 47.9617 30.673 47.9421 30.4141 47.9421H29.7874C29.6656 47.9421 29.6046 47.9922 29.6046 48.0727C29.6058 48.1181 29.6236 48.1615 29.6547 48.1945C29.6849 48.2349 29.7192 48.2721 29.7569 48.3055C29.7757 48.3647 29.786 48.4262 29.7874 48.4883V53.5735C29.7874 53.6845 29.7678 53.7345 29.7265 53.7759C29.5938 53.9173 29.5938 53.9173 29.5938 53.9934C29.5938 54.0696 29.6547 54.1262 29.7874 54.1262H30.7078C30.8297 54.1262 30.8906 54.087 30.8906 53.9934C30.8889 53.9488 30.8712 53.9063 30.8406 53.8738C30.809 53.8345 30.7748 53.7975 30.7383 53.7628C30.7195 53.7036 30.7092 53.6421 30.7078 53.58V50.0332C30.7078 49.8396 30.7296 49.7895 30.7992 49.7895C30.8689 49.7895 30.871 49.8091 30.9515 49.9114L31.8741 51.0755C31.9811 51.1884 32.0633 51.3224 32.1154 51.4689C32.1675 51.6154 32.1884 51.7712 32.1766 51.9263V53.5778C32.1766 53.6888 32.157 53.7389 32.1157 53.7802C31.9851 53.9216 31.9851 53.9216 31.9851 53.9978C31.9851 54.074 32.046 54.1305 32.1766 54.1305H33.1101C33.2298 54.1305 33.2907 54.0914 33.2907 53.9978C33.289 53.9532 33.2712 53.9107 33.2406 53.8781L33.1384 53.7672C33.1196 53.7081 33.11 53.6464 33.1101 53.5844V48.8169C33.1101 48.3621 33.1101 48.3621 33.1601 48.2903Z" fill="#ED2024"/>
<path d="M22.25 48.2903C22.3805 48.1489 22.3805 48.1489 22.3805 48.0727C22.3805 47.9965 22.3196 47.9421 22.1999 47.9421H21.2664C21.1468 47.9421 21.0858 47.9813 21.0858 48.0727C21.087 48.1181 21.1048 48.1615 21.1359 48.1945L21.236 48.3055C21.2569 48.3642 21.2672 48.4261 21.2664 48.4883V49.5001C21.2664 49.622 21.236 49.6938 21.1859 49.6938C21.1515 49.6844 21.1194 49.668 21.0917 49.6455C21.0639 49.623 21.0412 49.595 21.0249 49.5632L19.9805 48.1945C19.7977 47.9617 19.7629 47.9421 19.5039 47.9421H18.8773C18.7554 47.9421 18.6945 47.9922 18.6945 48.0727C18.6956 48.1181 18.7134 48.1615 18.7445 48.1945C18.7754 48.2344 18.8096 48.2715 18.8468 48.3055C18.8656 48.3647 18.8758 48.4262 18.8773 48.4883V53.5735C18.8664 53.6845 18.8555 53.7345 18.8163 53.7759C18.6836 53.9173 18.6836 53.9173 18.6836 53.9934C18.6836 54.0696 18.7445 54.1262 18.8773 54.1262H19.7999C19.9217 54.1262 19.9826 54.087 19.9826 53.9934C19.9809 53.9488 19.9632 53.9063 19.9326 53.8738C19.901 53.8345 19.8668 53.7975 19.8303 53.7628C19.8115 53.7036 19.8013 53.6421 19.7999 53.58V50.0332C19.7999 49.8396 19.8216 49.7895 19.8912 49.7895C19.9609 49.7895 19.9631 49.8091 20.0436 49.9114L20.9662 51.0755C21.0732 51.1884 21.1554 51.3224 21.2074 51.4689C21.2595 51.6154 21.2804 51.7712 21.2686 51.9263V53.5778C21.2686 53.6888 21.249 53.7389 21.2099 53.7802C21.0771 53.9216 21.0771 53.9216 21.0771 53.9978C21.0771 54.074 21.1381 54.1305 21.2686 54.1305H22.1934C22.3131 54.1305 22.374 54.0914 22.374 53.9978C22.3723 53.9532 22.3545 53.9107 22.324 53.8781L22.2239 53.7672C22.203 53.7085 22.1927 53.6466 22.1934 53.5844V48.8169C22.1934 48.3621 22.1934 48.3621 22.25 48.2903Z" fill="#ED2024"/>
<path d="M26.261 47.9465H23.4148C23.1973 47.9465 23.1211 47.9966 23.1211 48.1794V48.7973C23.1211 48.9801 23.1711 49.0911 23.2429 49.0911C23.3061 49.0817 23.3635 49.0491 23.404 48.9997C23.578 48.8278 23.6477 48.806 23.9719 48.806C24.2961 48.806 24.3462 48.867 24.3462 49.3021V53.5779C24.3462 53.6889 24.3266 53.7389 24.2852 53.7802C24.1547 53.9217 24.1547 53.9217 24.1547 53.9978C24.1547 54.074 24.2156 54.1306 24.3462 54.1306H25.2883C25.4211 54.1306 25.4711 54.0914 25.4711 53.9978C25.4694 53.9532 25.4517 53.9107 25.4211 53.8782L25.3688 53.8172L25.3188 53.7672C25.3 53.708 25.2897 53.6465 25.2883 53.5844V49.3196C25.2883 48.9148 25.3797 48.8126 25.7453 48.8126C25.8333 48.7983 25.9234 48.8035 26.0091 48.828C26.0949 48.8524 26.1742 48.8954 26.2414 48.954C26.282 48.9953 26.336 49.0207 26.3937 49.0258C26.4851 49.0258 26.5352 48.9257 26.5352 48.7429V48.1859C26.546 48.0075 26.4633 47.9465 26.261 47.9465Z" fill="#ED2024"/>
<path d="M17.8032 53.0925C17.7723 53.0933 17.7419 53.1007 17.714 53.1143C17.5496 53.232 17.3465 53.2826 17.1461 53.2557H16.0016C15.6665 53.2557 15.5664 53.173 15.5664 52.901V51.1602C15.5664 50.8578 15.6469 50.7446 15.8797 50.7446C16.3649 50.7446 16.4063 50.7555 16.5173 50.836C16.6282 50.9165 16.6391 50.9274 16.6892 50.9274C16.7914 50.9274 16.8306 50.8578 16.8306 50.7098V49.9809C16.8306 49.7785 16.7806 49.6763 16.6805 49.6763C16.6391 49.6763 16.6195 49.6871 16.5281 49.7676C16.4367 49.8482 16.3649 49.8786 15.9994 49.8786C15.6338 49.8786 15.5642 49.8177 15.5642 49.5044C15.5642 49.0692 15.5642 49.0278 15.6142 48.9473C15.6643 48.8668 15.7252 48.8146 16.0081 48.8146H16.9198C16.976 48.8067 17.0333 48.8129 17.0864 48.8326C17.1396 48.8524 17.1871 48.8851 17.2244 48.9277C17.2708 48.9652 17.3264 48.9893 17.3855 48.9974C17.4573 48.9974 17.5378 48.9168 17.5791 48.8146L17.7815 48.177C17.7912 48.1444 17.7978 48.1108 17.8011 48.0769C17.8011 47.9747 17.7706 47.9551 17.5835 47.9551H14.6329C14.5132 47.9551 14.4523 47.9942 14.4523 48.0856C14.456 48.1304 14.4735 48.173 14.5023 48.2075C14.541 48.2399 14.5754 48.2772 14.6046 48.3185C14.6235 48.3738 14.633 48.4319 14.6329 48.4904V53.5864C14.6329 53.6974 14.6133 53.7474 14.5741 53.7888C14.4414 53.9302 14.4414 53.9302 14.4414 53.9912C14.4414 54.0934 14.5023 54.1326 14.6329 54.1326H17.429C17.6313 54.1326 17.6836 54.1021 17.7336 53.915L17.9055 53.3667C17.9208 53.317 17.931 53.266 17.936 53.2143C17.9357 53.1975 17.932 53.1808 17.9251 53.1655C17.9182 53.1501 17.9083 53.1363 17.8958 53.1248C17.8834 53.1134 17.8688 53.1047 17.8529 53.0991C17.837 53.0936 17.8201 53.0913 17.8032 53.0925Z" fill="#ED2024"/>
<path d="M13.3888 51.106C13.5215 50.9645 13.5215 50.9645 13.5215 50.8884C13.5215 50.8122 13.4693 50.7578 13.3387 50.7578H12.4031C12.2725 50.7578 12.2203 50.797 12.2203 50.8884C12.2212 50.9343 12.2399 50.978 12.2725 51.0102C12.3077 51.0455 12.3411 51.0826 12.3726 51.1212C12.3914 51.1804 12.4017 51.2419 12.4031 51.304V52.8272C12.4031 53.2014 12.3313 53.2819 12.0375 53.2819C11.2085 53.2819 10.732 52.4638 10.732 51.0451C10.732 49.6677 11.2498 48.7864 12.0593 48.7864C12.1669 48.7799 12.2746 48.7994 12.3731 48.8433C12.4716 48.8873 12.558 48.9543 12.625 49.0388C12.7164 49.1716 12.7469 49.1912 12.8187 49.1912C12.8905 49.1912 12.9492 49.1411 12.9906 49.0192L13.2082 48.3904C13.2268 48.3455 13.2371 48.2976 13.2387 48.249C13.2387 48.0161 12.7817 47.8442 12.1507 47.8442C10.7124 47.8442 9.75713 49.1302 9.75713 51.0451C9.72441 51.8468 9.94108 52.6389 10.3773 53.3124C10.5736 53.5876 10.8314 53.8133 11.1302 53.9716C11.4289 54.1298 11.7605 54.2163 12.0985 54.2241C12.7251 54.2241 13.5368 53.8607 13.5368 53.5866C13.5338 53.5741 13.5282 53.5623 13.5203 53.5522C13.5124 53.5421 13.5025 53.5337 13.4911 53.5278L13.4084 53.456L13.3496 53.3537C13.3394 53.2817 13.3357 53.2089 13.3387 53.1361V51.6478C13.3387 51.1778 13.3387 51.1778 13.3888 51.106Z" fill="#ED2024"/>
<path d="M4.1343 53.6388C4.11472 53.567 4.08425 53.4669 4.06467 53.3842L3.06809 48.645L3.0485 48.534C3.0485 48.4731 3.02892 48.4209 3.02892 48.3926C3.02946 48.349 3.04311 48.3065 3.06809 48.2707C3.10585 48.2079 3.13373 48.1397 3.15077 48.0684C3.15077 47.9857 3.05938 47.9465 2.85702 47.9465H1.47964C1.27728 47.9465 1.1946 47.9857 1.1946 48.0967C1.20195 48.1662 1.22664 48.2328 1.2664 48.2903C1.2942 48.3438 1.31121 48.4022 1.31645 48.4622C1.31151 48.5239 1.30132 48.5851 1.28599 48.645L0.304633 53.2841C0.281923 53.4153 0.247701 53.5441 0.202363 53.6693C0.154442 53.7231 0.110791 53.7806 0.0718063 53.8412C0.0334684 53.883 0.00846712 53.9352 0 53.9913C0 54.0936 0.0718063 54.124 0.304633 54.124H1.03358C1.27728 54.124 1.35779 54.0936 1.35779 53.9913C1.3529 53.9421 1.33141 53.8961 1.29686 53.8608C1.24864 53.797 1.21721 53.7222 1.20547 53.6432C1.211 53.6022 1.22122 53.5621 1.23594 53.5235L1.25552 53.4321L1.66242 51.5064C1.72117 51.193 1.82344 51.1125 2.15636 51.1125C2.60243 51.1125 2.61331 51.1125 2.73517 51.6892L3.08985 53.4299C3.11275 53.5196 3.12588 53.6116 3.12901 53.7041C3.13034 53.7362 3.12033 53.7678 3.10073 53.7933C2.98758 53.926 2.98758 53.926 2.98758 53.987C2.98758 54.0979 3.0398 54.1284 3.26175 54.1284H4.04073C4.23439 54.1284 4.33449 54.0784 4.33449 53.987C4.33205 53.9365 4.31023 53.889 4.27356 53.8542C4.22117 53.7865 4.17458 53.7144 4.1343 53.6388ZM2.17595 50.3357C1.98229 50.3357 1.90178 50.2966 1.90178 50.1943C1.9007 50.167 1.90438 50.1398 1.91266 50.1138L1.93224 50.042L2.07368 49.4458C2.09326 49.3435 2.1259 49.3021 2.17595 49.3021C2.22599 49.3021 2.25646 49.3239 2.2978 49.4958L2.40877 50.0224C2.42495 50.0785 2.43516 50.1361 2.43924 50.1943C2.44141 50.2966 2.3609 50.3357 2.17595 50.3357Z" fill="#ED2024"/>
<path d="M8.48689 52.8489C7.96902 51.1669 7.94943 51.1256 7.57517 50.7513C7.5594 50.7388 7.5486 50.7211 7.54471 50.7013C7.54471 50.6708 7.61434 50.6404 7.83846 50.5794C8.14643 50.4931 8.417 50.307 8.60764 50.0502C8.79828 49.7934 8.89817 49.4805 8.89162 49.1607C8.89553 48.9656 8.85344 48.7724 8.76876 48.5966C8.68408 48.4208 8.55919 48.2674 8.40421 48.1489C8.16267 47.977 8.01036 47.9465 7.45332 47.9465H5.29695C5.1664 47.9465 5.11635 47.9857 5.11635 48.0771C5.11751 48.1225 5.13532 48.1658 5.1664 48.1989C5.18598 48.2294 5.22732 48.2707 5.26649 48.3208C5.28765 48.3756 5.29799 48.434 5.29695 48.4927V53.5779C5.29695 53.6889 5.27737 53.7389 5.2382 53.7802C5.10547 53.9217 5.10547 53.9217 5.10547 53.9978C5.10547 54.074 5.1664 54.1306 5.29695 54.1306H6.2609C6.39145 54.1306 6.4415 54.0914 6.4415 53.9978C6.43981 53.9532 6.42204 53.9107 6.39145 53.8782L6.29136 53.7672C6.27048 53.7085 6.26017 53.6467 6.2609 53.5844V51.1343C6.2609 50.8514 6.32182 50.7492 6.49372 50.7492C6.76572 50.7492 6.89845 50.9515 7.1922 51.8828L7.77971 53.7063C7.89068 54.0522 7.96249 54.1219 8.18443 54.1219H8.92208C9.05264 54.1219 9.13968 54.0718 9.13968 53.9804C9.13968 53.9304 9.11139 53.889 9.02 53.8085C8.79152 53.6388 8.69143 53.456 8.48689 52.8489ZM6.76354 49.881C6.35881 49.881 6.25872 49.8091 6.25872 49.5459V49.2325C6.25872 48.8778 6.33923 48.7973 6.69391 48.7973C6.83752 48.7973 7.22049 48.7973 7.28142 48.7973C7.62739 48.8082 7.808 48.9692 7.808 49.2543C7.81888 49.6677 7.45549 49.881 6.76572 49.881H6.76354Z" fill="#ED2024"/>
<path d="M44.9804 48.2903C45.111 48.1489 45.111 48.1489 45.111 48.0727C45.111 47.9965 45.0501 47.9421 44.9282 47.9421H43.9969C43.8751 47.9421 43.8141 47.9813 43.8141 48.0727C43.8161 48.1183 43.8347 48.1617 43.8664 48.1945L43.9664 48.3055C43.9873 48.3642 43.9976 48.4261 43.9969 48.4883V49.5001C43.9969 49.622 43.9664 49.6938 43.9164 49.6938C43.8816 49.6845 43.8491 49.6682 43.821 49.6457C43.7929 49.6232 43.7698 49.5951 43.7532 49.5632L42.7109 48.1945C42.5281 47.9617 42.4933 47.9421 42.2344 47.9421H41.6055C41.4859 47.9421 41.4249 47.9922 41.4249 48.0727C41.4261 48.1181 41.4439 48.1615 41.475 48.1945C41.5052 48.2349 41.5395 48.2721 41.5773 48.3055C41.5961 48.3646 41.6056 48.4263 41.6055 48.4883V53.5735C41.6055 53.6845 41.586 53.7345 41.5446 53.7759C41.4141 53.9173 41.4141 53.9173 41.4141 53.9934C41.4141 54.0696 41.475 54.1262 41.6055 54.1262H42.5281C42.65 54.1262 42.7109 54.087 42.7109 53.9934C42.7092 53.9488 42.6915 53.9063 42.6609 53.8738C42.6293 53.8345 42.5951 53.7975 42.5586 53.7628C42.5398 53.7036 42.5296 53.6421 42.5281 53.58V50.0332C42.5281 49.8396 42.5499 49.7895 42.6195 49.7895C42.6892 49.7895 42.6913 49.8091 42.7719 49.9114L43.6923 51.0755C43.8 51.1879 43.8828 51.3218 43.9353 51.4684C43.9878 51.615 44.0088 51.771 43.9969 51.9263V53.5778C43.9969 53.6888 43.9773 53.7389 43.936 53.7802C43.8054 53.9216 43.8054 53.9216 43.8054 53.9978C43.8054 54.074 43.8664 54.1305 43.9969 54.1305H44.9282C45.0501 54.1305 45.111 54.0914 45.111 53.9978C45.1093 53.9532 45.0915 53.9107 45.0609 53.8781L44.9587 53.7672C44.9399 53.708 44.9296 53.6464 44.9282 53.5844V48.8169C44.9282 48.3621 44.9282 48.3621 44.9804 48.2903Z" fill="#ED2024"/>
<path d="M40.4381 53.6388C40.4185 53.567 40.3881 53.4669 40.3685 53.3842L39.3828 48.645L39.361 48.534C39.361 48.4731 39.3414 48.4209 39.3414 48.3926C39.3426 48.3487 39.357 48.3063 39.3828 48.2707C39.4192 48.2075 39.4464 48.1394 39.4633 48.0684C39.4633 47.9857 39.3719 47.9465 39.1695 47.9465H37.7921C37.5898 47.9465 37.5093 47.9857 37.5093 48.0967C37.5155 48.1661 37.5395 48.2328 37.5789 48.2903C37.6067 48.3438 37.6237 48.4022 37.6289 48.4622C37.624 48.5239 37.6138 48.5851 37.5985 48.645L36.6171 53.2841C36.5944 53.4153 36.5602 53.5441 36.5149 53.6693C36.4669 53.7231 36.4233 53.7806 36.3843 53.8412C36.346 53.883 36.321 53.9352 36.3125 53.9913C36.3125 54.0936 36.3843 54.124 36.6171 54.124H37.3461C37.5898 54.124 37.6703 54.0936 37.6703 53.9913C37.6654 53.9421 37.6439 53.8961 37.6094 53.8608C37.5611 53.797 37.5297 53.7222 37.518 53.6432C37.5235 53.6022 37.5337 53.5621 37.5484 53.5235L37.568 53.4321L37.9749 51.5064C38.0337 51.193 38.1359 51.1125 38.471 51.1125C38.9062 51.1125 38.9258 51.1125 39.0477 51.6892L39.4023 53.4299C39.4252 53.5196 39.4384 53.6116 39.4415 53.7041C39.4428 53.7362 39.4328 53.7678 39.4132 53.7933C39.3001 53.926 39.3001 53.926 39.3001 53.987C39.3001 54.0979 39.3523 54.1284 39.5742 54.1284H40.3532C40.5469 54.1284 40.647 54.0784 40.647 53.987C40.6445 53.937 40.6236 53.8897 40.5882 53.8542C40.532 53.7869 40.4818 53.7149 40.4381 53.6388ZM38.4797 50.3357C38.2883 50.3357 38.2056 50.2966 38.2056 50.1943C38.2009 50.1676 38.2009 50.1404 38.2056 50.1138L38.2252 50.042L38.3666 49.4458C38.3884 49.3435 38.4188 49.3021 38.4689 49.3021C38.5189 49.3021 38.5494 49.3239 38.5907 49.4958L38.7017 50.0224C38.7179 50.0785 38.7281 50.1361 38.7322 50.1943C38.7474 50.2966 38.6669 50.3357 38.4841 50.3357H38.4797Z" fill="#ED2024"/>
<path d="M92.3896 53.0925C92.3579 53.093 92.3268 53.1004 92.2982 53.1143C92.1347 53.232 91.9322 53.2827 91.7325 53.2557H90.5879C90.2528 53.2557 90.1528 53.173 90.1528 52.901V51.1602C90.1528 50.8578 90.2333 50.7446 90.4661 50.7446C90.9535 50.7446 90.9927 50.7555 91.1036 50.836C91.2146 50.9165 91.2277 50.9274 91.2777 50.9274C91.3778 50.9274 91.4192 50.8578 91.4192 50.7098V49.9809C91.4192 49.7785 91.3691 49.6763 91.2668 49.6763C91.2277 49.6763 91.2059 49.6871 91.1145 49.7676C91.0231 49.8482 90.9535 49.8786 90.5879 49.8786C90.2224 49.8786 90.1528 49.8177 90.1528 49.5044C90.1528 49.0692 90.1528 49.0278 90.2028 48.9473C90.2529 48.8668 90.3159 48.8146 90.5988 48.8146H91.5105C91.5667 48.8065 91.6241 48.8126 91.6773 48.8323C91.7305 48.8521 91.7779 48.8849 91.8152 48.9277C91.8613 48.9656 91.9171 48.9897 91.9762 48.9974C92.048 48.9974 92.1263 48.9168 92.1677 48.8146L92.37 48.177C92.3814 48.1447 92.3887 48.1111 92.3918 48.0769C92.3918 47.9747 92.3613 47.9551 92.1742 47.9551H89.2149C89.0931 47.9551 89.0343 47.9942 89.0343 48.0856C89.038 48.1304 89.0555 48.173 89.0844 48.2075C89.1228 48.2395 89.1565 48.2769 89.1845 48.3185C89.2032 48.3739 89.2135 48.4319 89.2149 48.4904V53.5864C89.2149 53.6974 89.1953 53.7474 89.154 53.7888C89.0234 53.9302 89.0234 53.9302 89.0234 53.9912C89.0234 54.0934 89.0844 54.1326 89.2149 54.1326H92.011C92.2134 54.1326 92.2634 54.1021 92.3135 53.915L92.4875 53.3667C92.5028 53.317 92.513 53.266 92.518 53.2143C92.5177 53.1979 92.5142 53.1816 92.5075 53.1665C92.5009 53.1514 92.4913 53.1378 92.4794 53.1265C92.4674 53.1151 92.4533 53.1063 92.4379 53.1005C92.4225 53.0946 92.4061 53.0919 92.3896 53.0925Z" fill="#ED2024"/>
<path d="M69.6708 53.7693C69.6219 53.7309 69.5774 53.6871 69.5381 53.6388C69.4076 53.4364 69.388 53.3951 69.0115 52.2201C68.6482 51.1473 68.5067 50.8536 68.1607 50.4793C68.1364 50.4581 68.1189 50.4301 68.1107 50.3988C68.1152 50.3757 68.1266 50.3545 68.1433 50.3379L68.2935 50.1769L68.4153 50.0245C68.4763 49.944 68.6177 49.7308 68.9223 49.2456C69.3466 48.5667 69.4489 48.4339 69.6817 48.2729C69.7927 48.1924 69.8428 48.1402 69.8428 48.0792C69.8428 47.9792 69.7818 47.9487 69.5599 47.9487H69.1552C68.72 47.9269 68.6786 47.9683 68.1607 48.769C67.706 49.5284 67.706 49.5284 67.6559 49.5785C67.6087 49.6661 67.5404 49.7406 67.4572 49.7953C67.374 49.85 67.2786 49.8832 67.1794 49.8918C67.0075 49.8918 66.9618 49.8113 66.9618 49.4871V48.8191C66.9618 48.3643 66.9618 48.3643 67.0227 48.2925C67.1555 48.1511 67.1555 48.1511 67.1555 48.0749C67.1555 47.9987 67.0836 47.9443 66.9618 47.9443H66.0196C65.8978 47.9443 65.839 47.9835 65.839 48.0749C65.8402 48.1203 65.858 48.1636 65.8891 48.1967C65.9205 48.2361 65.9547 48.2732 65.9913 48.3077C66.0101 48.3668 66.0197 48.4285 66.0196 48.4905V53.5757C66.0196 53.6867 66 53.7367 65.9587 53.7781C65.8281 53.9195 65.8281 53.9195 65.8281 53.9956C65.8281 54.0718 65.8891 54.1284 66.0196 54.1284H66.9618C67.0836 54.1284 67.1555 54.0783 67.1555 53.9956C67.153 53.9508 67.1344 53.9083 67.1032 53.876C67.068 53.8407 67.0346 53.8036 67.0031 53.765C66.9796 53.7067 66.9656 53.645 66.9618 53.5822V51.3084C66.9618 50.9341 67.0336 50.7818 67.2055 50.7818C67.5101 50.7818 67.7125 51.217 68.1564 52.7401C68.2391 53.0034 68.3305 53.2972 68.4501 53.6323L68.4806 53.7345L68.5633 53.926C68.6242 54.0979 68.6634 54.1284 68.8766 54.1284H69.6469C69.7992 54.1284 69.8797 54.0783 69.8797 53.9956C69.8767 53.973 69.8687 53.9513 69.8563 53.9321C69.8439 53.9129 69.8274 53.8967 69.8079 53.8847L69.6708 53.7693Z" fill="#ED2024"/>
<path d="M64.8587 53.6388C64.8391 53.567 64.8086 53.4669 64.7891 53.3842L63.7947 48.645L63.7751 48.534C63.7751 48.4731 63.7555 48.4209 63.7555 48.3926C63.756 48.349 63.7697 48.3065 63.7947 48.2707C63.8324 48.2079 63.8603 48.1397 63.8773 48.0684C63.8773 47.9857 63.7859 47.9465 63.5836 47.9465H62.2062C62.0038 47.9465 61.9212 47.9857 61.9212 48.0967C61.9274 48.1665 61.9522 48.2333 61.993 48.2903C62.0208 48.3438 62.0378 48.4022 62.043 48.4622C62.0381 48.5239 62.0279 48.5851 62.0125 48.645L61.0312 53.2841C61.0085 53.4153 60.9743 53.5441 60.9289 53.6693C60.8802 53.723 60.8358 53.7805 60.7962 53.8412C60.7592 53.8836 60.735 53.9357 60.7266 53.9913C60.7266 54.0936 60.7962 54.124 61.0312 54.124H61.7601C62.0038 54.124 62.0844 54.0936 62.0844 53.9913C62.0795 53.9421 62.058 53.8961 62.0234 53.8608C61.9752 53.797 61.9438 53.7222 61.932 53.6432C61.9365 53.602 61.9467 53.5617 61.9625 53.5235L61.9821 53.4321L62.389 51.5064C62.4499 51.193 62.55 51.1125 62.8829 51.1125C63.329 51.1125 63.3399 51.1125 63.4617 51.6892L63.8164 53.4299C63.8393 53.5196 63.8524 53.6116 63.8556 53.7041C63.8569 53.7362 63.8469 53.7678 63.8273 53.7933C63.7141 53.926 63.7141 53.926 63.7141 53.987C63.7141 54.0979 63.7664 54.1284 63.9883 54.1284H64.7673C64.961 54.1284 65.0611 54.0784 65.0611 53.987C65.0586 53.9365 65.0368 53.889 65.0001 53.8542C64.9477 53.786 64.9004 53.714 64.8587 53.6388ZM62.9003 50.3357C62.7067 50.3357 62.6262 50.2966 62.6262 50.1943C62.6251 50.167 62.6288 50.1398 62.637 50.1138L62.6653 50.0463L62.8089 49.4501C62.8285 49.3478 62.859 49.3065 62.909 49.3065C62.9591 49.3065 62.9895 49.3283 63.0309 49.5002L63.1419 50.0267C63.158 50.0828 63.1682 50.1404 63.1723 50.1986C63.168 50.2966 63.0875 50.3357 62.9047 50.3357H62.9003Z" fill="#ED2024"/>
<path d="M74.2677 48.2902C74.4005 48.1488 74.4004 48.1488 74.4004 48.0727C74.4004 47.9965 74.3395 47.9421 74.2177 47.9421H73.2646C73.134 47.9421 73.0731 47.9813 73.0731 48.0727C73.0743 48.118 73.0921 48.1614 73.1232 48.1945C73.1592 48.2297 73.1933 48.2667 73.2254 48.3055C73.2491 48.3636 73.2624 48.4255 73.2646 48.4883V49.5414C73.2646 49.8352 73.2146 49.8961 72.9513 49.8961H72.2397C71.8851 49.8656 71.8633 49.8548 71.8633 49.5414V48.8125C71.8633 48.3577 71.8633 48.3577 71.9155 48.2859C72.0461 48.1445 72.0461 48.1445 72.0461 48.0683C72.0461 47.9921 71.9851 47.9377 71.8633 47.9377H70.9124C70.7906 47.9377 70.7296 47.9769 70.7296 48.0683C70.7308 48.1137 70.7486 48.1571 70.7797 48.1902C70.8014 48.2206 70.8428 48.2511 70.8819 48.3011C70.9007 48.3603 70.911 48.4218 70.9124 48.4839V53.5691C70.9015 53.6801 70.8928 53.7301 70.8515 53.7715C70.7187 53.9129 70.7188 53.9129 70.7188 53.9891C70.7188 54.0652 70.7797 54.1218 70.9124 54.1218H71.8633C71.9851 54.1218 72.0461 54.0826 72.0461 53.9891C72.0444 53.9444 72.0266 53.9019 71.996 53.8694L71.946 53.8084L71.8959 53.7584C71.8752 53.6997 71.8642 53.6379 71.8633 53.5756V51.1821C71.8633 50.8361 71.9155 50.7861 72.2593 50.7861H72.8773C73.1406 50.7969 73.1406 50.7969 73.1906 50.847C73.2407 50.897 73.2711 50.958 73.2711 51.1908V53.5843C73.2711 53.6953 73.2515 53.7453 73.2102 53.7867C73.0796 53.9281 73.0796 53.939 73.0796 54.0043C73.0796 54.0979 73.1406 54.137 73.2711 54.137H74.2242C74.3461 54.137 74.407 54.0979 74.407 54.0043C74.4055 53.9592 74.3868 53.9163 74.3548 53.8846L74.2547 53.7736C74.2359 53.7145 74.2256 53.6529 74.2242 53.5909V48.8168C74.2177 48.3621 74.2177 48.3621 74.2677 48.2902Z" fill="#ED2024"/>
<path d="M86.9698 50.3247C86.1799 49.7698 86.008 49.5762 86.008 49.2215C86.008 48.919 86.3017 48.7058 86.7173 48.7058C87.0503 48.7058 87.2135 48.7776 87.344 48.9799C87.3941 49.0496 87.4354 49.08 87.4963 49.08C87.5449 49.0776 87.5909 49.0579 87.6261 49.0243C87.6613 48.9907 87.6832 48.9456 87.6878 48.8973L87.8293 48.3707L87.8401 48.2706C87.8401 48.0269 87.3331 47.855 86.6347 47.855C85.6424 47.855 84.9657 48.4316 84.9657 49.2628C84.9657 49.8199 85.2181 50.2137 85.8861 50.6902C86.1937 50.8933 86.4847 51.1203 86.7565 51.3691C86.8799 51.4889 86.9784 51.6319 87.0463 51.7898C87.1143 51.9478 87.1504 52.1176 87.1525 52.2896C87.1582 52.4202 87.1371 52.5507 87.0906 52.6729C87.0441 52.7951 86.9732 52.9066 86.8821 53.0005C86.7911 53.0944 86.6819 53.1687 86.5611 53.219C86.4404 53.2692 86.3107 53.2943 86.1799 53.2927C85.7752 53.2927 85.4618 53.1208 85.3596 52.8379C85.3204 52.7052 85.2573 52.6551 85.1681 52.6551C85.0789 52.6551 85.0158 52.7269 84.9766 52.8727L84.833 53.4689C84.8165 53.5248 84.807 53.5826 84.8047 53.6408C84.8047 53.915 85.612 54.2283 86.3431 54.2283C87.3658 54.2283 88.1557 53.3971 88.1557 52.3135C88.1448 51.5519 87.7487 50.8839 86.9698 50.3247Z" fill="#ED2024"/>
<path d="M83.7751 48.2902C83.9078 48.1488 83.9078 48.1488 83.9078 48.0727C83.9078 47.9965 83.8556 47.9421 83.725 47.9421H82.8024C82.6719 47.9421 82.611 47.9813 82.611 48.0727C82.6121 48.118 82.6299 48.1614 82.661 48.1945C82.6972 48.2295 82.7314 48.2665 82.7633 48.3055C82.7859 48.364 82.7991 48.4256 82.8024 48.4883V53.0055C82.5999 53.182 82.342 53.2821 82.0735 53.2884C81.9525 53.2899 81.8335 53.2577 81.7298 53.1954C81.626 53.1332 81.5416 53.0433 81.486 52.9359C81.375 52.7531 81.3641 52.6617 81.3641 52.1852V48.8125C81.3641 48.3577 81.3641 48.3577 81.4142 48.2859C81.5469 48.1445 81.5469 48.1445 81.5469 48.0683C81.5469 47.9921 81.4969 47.9377 81.3641 47.9377H80.4132C80.2805 47.9377 80.2305 47.9769 80.2305 48.0683C80.2316 48.1137 80.2494 48.1571 80.2805 48.1902L80.3327 48.2511L80.3828 48.3011C80.4016 48.3603 80.4118 48.4218 80.4132 48.4839V51.8958C80.4132 52.9598 80.4524 53.1818 80.707 53.5778C80.9616 53.9738 81.5165 54.2306 82.1148 54.2306C82.4533 54.2412 82.7884 54.1613 83.0856 53.9991C83.3829 53.837 83.6314 53.5984 83.8056 53.308C83.8579 53.2375 83.8895 53.1539 83.8969 53.0665C83.8941 53.0121 83.8768 52.9596 83.8469 52.9141C83.7943 52.8439 83.7564 52.7637 83.7354 52.6785C83.7145 52.5933 83.711 52.5047 83.725 52.418V48.8168C83.7207 48.3621 83.7207 48.3621 83.7751 48.2902Z" fill="#ED2024"/>
<path d="M77.3892 47.855C76.0727 47.855 75.3242 48.9887 75.3242 50.9644C75.3242 53.0403 76.0423 54.2283 77.2826 54.2283C78.5599 54.2283 79.2997 53.0229 79.2997 50.9644C79.304 49.03 78.5838 47.855 77.3892 47.855ZM77.3087 53.2948C76.6407 53.2948 76.2947 52.5572 76.2947 51.1189C76.2947 49.5696 76.6407 48.7906 77.3174 48.7906C78.0267 48.7906 78.3401 49.4782 78.3401 51.0275C78.3401 52.5768 78.0072 53.2927 77.3087 53.2927V53.2948Z" fill="#ED2024"/>
<path d="M50.8938 50.3247C50.1039 49.7698 49.932 49.5762 49.932 49.2215C49.932 48.919 50.2258 48.7058 50.6392 48.7058C50.9743 48.7058 51.1353 48.7776 51.2681 48.9799C51.3181 49.0496 51.3595 49.08 51.4204 49.08C51.4689 49.0776 51.515 49.0579 51.5502 49.0243C51.5853 48.9907 51.6072 48.9456 51.6119 48.8973L51.7533 48.3707L51.7642 48.2706C51.7642 48.0269 51.2572 47.855 50.5587 47.855C49.5665 47.855 48.8876 48.4316 48.8876 49.2628C48.8876 49.8199 49.14 50.2137 49.8102 50.6902C50.1173 50.8939 50.4083 51.1208 50.6806 51.3691C50.8039 51.4889 50.9024 51.6319 50.9704 51.7898C51.0384 51.9478 51.0744 52.1176 51.0766 52.2896C51.0822 52.4202 51.0611 52.5507 51.0147 52.6729C50.9682 52.7951 50.8972 52.9066 50.8062 53.0005C50.7151 53.0944 50.6059 53.1687 50.4852 53.219C50.3644 53.2692 50.2347 53.2943 50.1039 53.2927C49.6992 53.2927 49.3837 53.1208 49.2836 52.8379C49.2423 52.7052 49.1813 52.6551 49.0921 52.6551C49.0029 52.6551 48.9376 52.7269 48.8985 52.8727L48.757 53.4689C48.7401 53.5248 48.7298 53.5825 48.7266 53.6408C48.7266 53.915 49.536 54.2283 50.2671 54.2283C51.2877 54.2283 52.0797 53.3971 52.0797 52.3135C52.0688 51.5519 51.6728 50.8839 50.8938 50.3247Z" fill="#ED2024"/>
<path d="M55.7454 47.9465H52.8992C52.6816 47.9465 52.6055 47.9966 52.6055 48.1794V48.7973C52.6055 48.9801 52.6577 49.0911 52.7273 49.0911C52.7902 49.0807 52.8473 49.0483 52.8883 48.9997C53.0624 48.8278 53.132 48.806 53.4563 48.806C53.7805 48.806 53.8305 48.867 53.8305 49.3021V53.5779C53.8305 53.6889 53.8109 53.7389 53.7718 53.7802C53.639 53.9217 53.639 53.9217 53.639 53.9978C53.639 54.074 53.7 54.1306 53.8305 54.1306H54.7727C54.9054 54.1306 54.9555 54.0914 54.9555 53.9978C54.9538 53.9532 54.936 53.9107 54.9054 53.8782L54.8532 53.8172L54.8054 53.7672C54.7846 53.7084 54.7736 53.6467 54.7727 53.5844V49.3196C54.7727 48.9148 54.8641 48.8126 55.2275 48.8126C55.3158 48.7981 55.4063 48.8032 55.4924 48.8277C55.5785 48.8521 55.6582 48.8953 55.7258 48.954C55.7664 48.9953 55.8204 49.0207 55.8781 49.0258C55.9695 49.0258 56.0195 48.9257 56.0195 48.7429V48.1859C56.0195 48.0075 55.9477 47.9465 55.7454 47.9465Z" fill="#ED2024"/>
<path d="M60.1196 53.0925C60.088 53.093 60.0568 53.1004 60.0283 53.1143C59.864 53.2322 59.6608 53.2828 59.4603 53.2557H58.3136C57.9807 53.2557 57.8893 53.173 57.8893 52.901V51.1602C57.8893 50.8578 57.9698 50.7446 58.2026 50.7446C58.6901 50.7446 58.7292 50.7555 58.8402 50.836C58.9512 50.9165 58.962 50.9274 59.0121 50.9274C59.1144 50.9274 59.1557 50.8578 59.1557 50.7098V49.9809C59.1557 49.7785 59.1035 49.6763 59.0034 49.6763C58.962 49.6763 58.9425 49.6871 58.8511 49.7676C58.7597 49.8482 58.6901 49.8786 58.3245 49.8786C57.9589 49.8786 57.8893 49.8177 57.8893 49.5044C57.8893 49.0692 57.8893 49.0278 57.9394 48.9473C57.9894 48.8668 58.0503 48.8146 58.3332 48.8146H59.2471C59.303 48.8064 59.36 48.8125 59.4128 48.8323C59.4657 48.8521 59.5127 48.8849 59.5496 48.9277C59.5959 48.9652 59.6516 48.9893 59.7106 48.9974C59.7824 48.9974 59.8651 48.9168 59.9042 48.8146L60.1066 48.177C60.1173 48.1446 60.1239 48.111 60.1262 48.0769C60.1262 47.9747 60.0979 47.9551 59.9086 47.9551H56.9493C56.8274 47.9551 56.7665 47.9942 56.7665 48.0856C56.7708 48.1307 56.7891 48.1733 56.8187 48.2075C56.8567 48.2401 56.8903 48.2774 56.9188 48.3185C56.9376 48.3739 56.9479 48.4319 56.9493 48.4904V53.5864C56.9384 53.6974 56.9297 53.7474 56.8884 53.7888C56.7578 53.9302 56.7578 53.9302 56.7578 53.9912C56.7578 54.0934 56.8187 54.1326 56.9493 54.1326H59.7454C59.9477 54.1326 59.9978 54.1021 60.0478 53.915L60.2219 53.3667C60.2368 53.3171 60.2463 53.266 60.2502 53.2143C60.2499 53.1977 60.2463 53.1812 60.2395 53.166C60.2328 53.1508 60.223 53.1371 60.2108 53.1257C60.1986 53.1143 60.1843 53.1055 60.1686 53.0998C60.1529 53.0941 60.1363 53.0916 60.1196 53.0925Z" fill="#ED2024"/>
<path d="M55.6406 25.0992C55.72 25.1631 55.6538 25.0595 55.6406 25.0992V25.0992Z" fill="black"/>
<path d="M32.9175 14.7676C33.1199 14.6305 32.9675 14.2715 32.9675 14.2715C32.8329 14.0071 32.6655 13.7607 32.4693 13.5382C31.7468 13.0595 31.6685 13.7884 31.5597 13.9364C31.493 14.222 31.4544 14.5135 31.4444 14.8067C31.192 16.0797 32.0602 17.1285 32.0972 17.0436C32.1276 17.0262 31.9905 16.7259 31.7773 16.2994C31.638 15.9665 31.7773 15.2441 31.8448 14.7153C31.8421 14.4882 31.9191 14.2672 32.0623 14.0909C32.1659 14.2857 32.2891 14.4694 32.4301 14.6392C32.4301 14.6392 32.7151 14.9047 32.9175 14.7676Z" fill="black"/>
<path d="M32.382 22.6294C32.3591 22.5028 32.3099 22.3823 32.2375 22.2759C32.1652 22.1694 32.0713 22.0793 31.962 22.0114C31.5791 21.7699 31.0677 21.5153 30.9676 20.9953C30.787 20.0139 31.4833 19.6701 31.4028 19.0848C31.4354 19.0848 31.3027 18.6496 31.1482 18.7257C30.9937 18.8019 30.9915 19.0652 30.9654 19.063C31.0394 19.3002 30.3301 20.0139 30.7609 21.202C30.9894 21.8004 31.6313 21.9723 31.9337 22.1572C32.2362 22.3422 32.3472 22.6533 32.382 22.6294Z" fill="black"/>
<path d="M31.8971 21.4607C32.1147 21.4259 32.2279 21.0646 32.1604 20.6577C32.093 20.2508 31.8667 19.9484 31.6534 19.9832C31.4402 20.018 31.3227 20.377 31.3901 20.7839C31.4576 21.1908 31.6839 21.4955 31.8971 21.4607Z" fill="black"/>
<path d="M39.1673 26.0564C39.0432 26.2 39.1346 26.6047 38.7669 26.9681C38.3991 27.3315 37.7398 27.2575 37.7442 27.3097C37.6985 27.362 38.4448 27.6361 39.0323 27.2075C39.5785 26.7962 39.7221 26.4503 39.7352 26.1891C39.7321 26.1264 39.7071 26.0668 39.6646 26.0207C39.622 25.9745 39.5646 25.9448 39.5024 25.9367C39.4409 25.9261 39.3778 25.9315 39.319 25.9524C39.2603 25.9734 39.208 26.0092 39.1673 26.0564Z" fill="white"/>
<path d="M27.3473 16.6215C27.245 16.6062 27.9653 14.6348 30.1173 12.5176C32.711 10.8617 33.3094 5.59375 37.0085 5.21513C38.7688 5.01277 41.0971 4.51665 43.2165 3.38081C45.3924 2.31024 47.4073 0.608651 49.7726 1.22227C52.1553 1.54213 53.5653 3.77248 54.7664 5.74824C55.9675 7.724 57.1599 9.80421 59.0378 10.705C60.846 11.4492 62.9784 11.4427 64.3188 12.2652C65.533 13.3031 66.1423 15.2767 67.4674 16.1406C68.6315 17.0849 69.8609 17.8574 70.8923 17.5484C71.9477 17.1415 71.5799 16.2428 71.5886 16.3516C71.506 16.2972 71.7279 17.0044 70.9489 17.2873C70.22 17.5919 69.1037 16.9478 68.0919 16.0862C66.9234 15.2397 66.3316 13.8841 65.3067 12.3109C63.9859 10.6615 61.7969 10.8791 60.1954 10.1589C58.509 9.81073 57.2252 7.8959 55.9806 5.72866C54.7577 3.6985 53.2041 0.636938 49.9793 0.13647C46.7654 -0.594648 44.3219 1.8076 42.2025 2.70626C39.9852 3.90521 37.8506 4.04882 35.9379 4.5667C33.9121 5.28911 32.9047 7.23876 32.2562 8.79239C31.5469 10.3156 30.3806 11.4732 29.4906 12.5459C27.6062 14.6631 27.1123 16.6236 27.3473 16.6215Z" fill="white"/>
<path d="M56.2713 15.8229C57.8749 15.0569 59.372 15.7141 60.597 16.1841C60.6144 16.1253 62.5554 17.1458 62.8165 16.8173C63.1081 16.4321 61.1454 15.0765 61.0997 15.1331C60.09 14.6522 57.9794 13.5033 55.4966 14.959C54.3695 15.7424 53.5796 17.037 53.3315 18.6385C53.1705 20.277 53.7667 21.8894 54.524 23.4931L55.118 24.6768C55.1398 24.7225 55.1615 24.7682 55.1855 24.8139C54.6436 24.4614 54.0975 24.0414 53.5709 23.6715C52.224 22.725 50.9402 21.8328 49.6129 21.4238C46.882 21.8589 45.4394 22.8251 45.3828 22.7446C45.3828 22.775 45.8746 22.6728 46.6884 22.4356C47.5044 22.3899 48.6685 21.3258 49.8936 21.8959C51.1534 22.4791 52.4612 23.4626 53.8103 24.5201C54.1519 24.7834 54.4935 25.0532 54.8612 25.3144C55.0628 25.4676 55.2819 25.5962 55.514 25.6973C55.63 25.726 55.7501 25.7333 55.8687 25.7191C55.9499 25.6706 56.0124 25.596 56.046 25.5075C56.0795 25.4191 56.0823 25.3219 56.0537 25.2317C56.0189 25.1059 55.9745 24.9829 55.9209 24.8639C55.5445 24.0349 55.1572 23.2581 54.8504 22.4508C53.3359 19.2391 54.6611 16.5823 56.2713 15.8229ZM55.6424 25.0989C55.6555 25.0598 55.7207 25.162 55.6424 25.0989V25.0989Z" fill="white"/>
<path d="M44.7947 21.8308C45.0954 21.7088 45.3671 21.5249 45.5921 21.2909C45.817 21.057 45.9902 20.7783 46.1002 20.473C46.4077 19.7227 46.6268 18.9391 46.753 18.1382C46.753 18.1382 46.8966 17.0785 46.5702 17.0001C46.2439 16.9218 45.9131 17.9402 45.9131 17.9402C45.4039 18.7322 45.9501 22.2007 42.2358 21.2737C40.656 21.0082 39.4266 19.7505 37.9883 19.7505C37.2267 20.3729 38.1841 20.8886 38.2385 21.1192C38.3531 21.2726 38.4947 21.4039 38.6563 21.5065C38.5542 21.3224 38.4339 21.1489 38.2973 20.9887C38.1472 20.7711 37.5509 19.9181 38.2015 20.0008C39.3722 20.2815 40.7909 21.5435 42.4838 21.8895C43.3564 22.0092 44.0853 22.0897 44.7947 21.8308Z" fill="white"/>
<path d="M29.0714 21.9765C29.0932 21.8569 28.8952 21.8416 28.7951 21.8525C28.7494 21.8525 28.7059 21.8525 28.6711 21.8634L28.4731 21.8503C28.2054 21.7916 28.138 21.5892 28.0988 21.3629C28.1147 20.9097 28.098 20.4559 28.0487 20.0051C28.0487 20.0051 27.9465 19.3959 27.6658 19.4024C27.3851 19.4089 27.3198 20.0182 27.3198 20.0182C27.2989 20.4851 27.3229 20.9529 27.3916 21.4151C27.4251 21.6269 27.5154 21.8256 27.653 21.99C27.7906 22.1544 27.9702 22.2784 28.1728 22.3486C28.2862 22.3899 28.4072 22.4062 28.5275 22.3965H28.5906C28.654 22.5787 28.7365 22.7537 28.8364 22.9187C29.1114 23.3661 29.5463 23.6921 30.0528 23.8304C30.2008 23.9349 30.5271 24.5485 30.8122 24.7356C31.4258 25.2753 32.0329 25.2622 32.0177 25.2426C32.0329 25.1904 31.5368 25.1251 31.0472 24.6443C30.777 24.3713 30.56 24.0503 30.4075 23.6977C29.8526 23.3082 29.598 23.2625 29.3304 22.86C29.2185 22.695 29.1368 22.5116 29.0888 22.3182L29.0606 22.1854V22.1376V22.1071C29.0617 22.0634 29.0653 22.0198 29.0714 21.9765Z" fill="white"/>
<path d="M70.6934 23.3082C70.7869 23.3082 71.1873 20.9147 70.726 20.8755C70.3452 20.8472 69.7425 22.9731 69.6663 22.9361C69.2311 23.9393 68.487 25.5756 66.4176 26.2632C64.1916 27.0182 61.7089 26.2327 57.7617 25.2013C57.1372 26.3698 57.3439 27.2032 56.7586 27.51C56.2211 27.6384 55.453 26.9007 54.9264 26.3676C53.8755 25.1143 52.5612 24.0002 51.1882 23.7151C50.8648 23.6383 50.5325 23.6053 50.2003 23.6172C50.0262 23.689 49.9174 23.5041 49.6933 23.8348C49.6565 23.9511 49.5949 24.058 49.5127 24.1481C49.3563 24.2936 49.1518 24.3765 48.9382 24.381C48.9944 24.2482 49.0283 24.107 49.0383 23.9632C49.0601 23.1298 48.638 22.7882 48.651 22.8056C48.5879 22.8056 49.01 23.256 48.8534 24.0655C48.826 24.1667 48.7873 24.2645 48.7381 24.357C48.7903 24.7922 48.9883 24.505 49.1101 24.5746C49.266 24.5565 49.4155 24.5024 49.5469 24.4167C49.6782 24.331 49.788 24.216 49.8674 24.0807C49.9718 23.726 50.9445 23.9719 51.4928 24.159C52.8702 24.6247 53.8472 25.8998 55.0744 27.2293C55.4064 27.5743 55.8055 27.8475 56.2472 28.0322C56.7804 28.2933 57.5049 27.8277 57.6529 27.3555C57.8371 26.9244 57.9757 26.4751 58.0663 26.0151C58.0859 25.9324 58.1077 25.8671 58.1229 25.8215C58.2796 25.8693 58.4689 25.939 58.6473 26.0064C61.9265 27.3359 64.74 27.9104 66.9529 27.2054C69.1659 26.5003 70.2517 24.7357 70.6934 23.3082Z" fill="white"/>
<path d="M37.0262 26.2849C36.7744 26.0816 36.4657 25.9615 36.1427 25.9411C36.3991 25.782 36.6963 25.7011 36.9979 25.7083C37.6159 25.7083 38.0053 25.9694 38.0315 25.9107C37.7654 25.6941 37.4446 25.5555 37.1045 25.5103C36.741 25.4537 36.3688 25.5021 36.0318 25.6495C35.9603 25.6762 35.8986 25.724 35.8551 25.7866C35.8115 25.8492 35.7881 25.9236 35.7881 25.9999C35.9012 26.3328 36.0274 26.1979 36.1536 26.2893C36.3208 26.3212 36.4812 26.3816 36.628 26.4677C37.1785 26.9159 36.5453 27.4295 36.2624 27.4469C35.9347 27.4446 35.6099 27.3849 35.3028 27.2706C35.3028 27.2706 34.8502 27.1357 34.7131 27.3359C34.5761 27.5361 35.033 27.8821 35.0395 27.8734C35.4297 28.0959 35.8861 28.173 36.3277 28.091C36.8195 28.0692 37.803 27.1074 37.0262 26.2849Z" fill="white"/>
<path d="M47.5913 24.3264C47.3933 24.357 47.1922 24.3621 46.9929 24.3417C46.8254 24.4156 46.5926 24.1676 46.4054 24.0218C47.1605 23.8717 47.5761 23.7411 47.859 23.4909C47.859 23.4909 48.0766 23.2319 47.909 23.0143C47.8545 22.9515 47.7831 22.9055 47.7032 22.882C47.6234 22.8585 47.5385 22.8583 47.4586 22.8816C47.1714 22.9469 46.7514 23.3929 45.8984 23.6715C46.412 25.2403 47.7915 24.309 47.5913 24.3264Z" fill="white"/>
<path d="M32.4693 13.5382C31.7468 13.0595 31.6685 13.7884 31.5597 13.9364C31.493 14.222 31.4544 14.5135 31.4444 14.8067C31.192 16.0797 32.0602 17.1285 32.0972 17.0436C32.1276 17.0262 31.9905 16.7259 31.7773 16.2994C31.638 15.9665 31.7773 15.2441 31.8448 14.7153C31.8421 14.4882 31.9191 14.2672 32.0623 14.0909C32.1659 14.2857 32.2891 14.4694 32.4301 14.6392C32.4301 14.6392 32.7064 14.9155 32.9088 14.7784C33.1112 14.6414 32.9588 14.2823 32.9588 14.2823C32.8277 14.0146 32.6632 13.7646 32.4693 13.5382Z" fill="black"/>
<path d="M31.962 22.0156C31.5791 21.774 31.0677 21.5195 30.9676 20.9994C30.787 20.0181 31.4833 19.6743 31.4028 19.0889C31.4354 19.0889 31.3027 18.6537 31.1482 18.7299C30.9937 18.8061 30.9915 19.0693 30.9654 19.0672C31.0394 19.3043 30.3301 20.0181 30.7609 21.2061C30.9894 21.8045 31.6313 21.9764 31.9337 22.1614C32.2362 22.3463 32.3406 22.6531 32.3689 22.6335C32.3475 22.508 32.3003 22.3882 32.2303 22.2819C32.1603 22.1755 32.0689 22.0848 31.962 22.0156Z" fill="black"/>
<path d="M31.8971 21.4607C32.1147 21.4259 32.2279 21.0646 32.1604 20.6577C32.093 20.2508 31.8667 19.9484 31.6534 19.9832C31.4402 20.018 31.3227 20.377 31.3901 20.7839C31.4576 21.1908 31.6839 21.4955 31.8971 21.4607Z" fill="black"/>
<path d="M36.6314 26.4676C36.4846 26.3815 36.3242 26.3211 36.157 26.2891C36.1203 26.2658 36.0785 26.2516 36.0352 26.2478C36.1244 26.3348 36.2114 26.4219 36.2963 26.5111C36.449 26.6713 36.6377 26.7929 36.8468 26.8658C36.8456 26.787 36.8254 26.7096 36.7879 26.6403C36.7504 26.571 36.6967 26.5117 36.6314 26.4676Z" fill="#606161"/>
<path d="M55.6406 25.0992C55.72 25.1631 55.6538 25.0595 55.6406 25.0992V25.0992Z" fill="black"/>
<path d="M54.2773 20.686C54.3214 20.9307 54.3795 21.1726 54.4514 21.4106C54.3992 21.1713 54.3383 20.9297 54.2773 20.686Z" fill="black"/>
<path d="M60.1237 6.33585C61.6359 7.32808 63.3354 8.21151 64.963 9.16458C68.2269 11.0859 70.838 12.9203 72.4504 14.6937C74.35 16.6803 73.5014 17.6399 72.272 18.086C72.3286 18.1687 70.0852 18.7866 70.0786 19.2131C70.1004 19.8071 72.7289 19.4307 72.7355 19.3132C73.4949 19.026 74.609 18.5843 74.944 17.2134C75.1421 15.8447 74.3304 14.8547 73.5536 14.0082C71.8847 12.3154 69.4824 10.7965 66.1489 8.92087C64.4843 7.97216 62.6978 7.1366 61.0941 6.21399C60.3128 5.77912 59.5599 5.29509 58.8399 4.76481C58.2284 4.30134 57.3842 3.49406 58.087 3.30475C60.9832 2.86956 63.1656 3.82045 63.1461 3.63767C63.1461 3.6529 61.3879 2.76729 58.4264 2.81299C58.1109 2.88044 57.4951 2.88044 57.3711 3.56369C57.4168 4.12944 57.7562 4.43407 58.0435 4.73653C58.686 5.33274 59.3824 5.86814 60.1237 6.33585Z" fill="#ED2024"/>
<path d="M23.9058 26.4894C25.6009 26.3676 27.7442 25.3035 29.0911 23.8391C28.8324 23.6484 28.6111 23.4116 28.4383 23.1406C28.373 23.0275 28.3186 22.923 28.2708 22.8208C28.1976 22.8116 28.125 22.7985 28.0532 22.7816C27.9108 22.7394 27.7758 22.6756 27.6528 22.5923C26.7893 24.0563 25.3888 25.1257 23.7491 25.5733C22.0781 25.9847 20.3228 25.8939 18.7031 25.3122C20.2836 26.2085 22.0935 26.618 23.9058 26.4894Z" fill="#ED2024"/>
<path d="M66.2102 24.9509C68.297 24.2307 70.6274 21.2213 69.1238 18.9932C68.4558 18.0075 67.3569 17.5744 66.6585 16.6606C65.8229 15.5726 65.3398 14.2278 64.1148 13.4728C62.8897 12.7177 61.5885 12.4218 60.2242 12.1085C58.627 11.7407 57.452 11.0205 56.2835 9.87812C54.5145 8.15912 53.1915 6.12026 51.6945 4.18584C49.982 1.97508 47.9431 1.92068 45.5605 3.07394C44.2549 3.70714 43.0647 4.36427 41.6633 4.80164C40.0814 5.2934 38.4843 5.7003 36.9394 6.30304C34.5088 7.2474 33.843 9.4908 32.2633 11.3077C32.1457 11.4378 32.0515 11.5873 31.9847 11.7494C31.8888 11.836 31.8047 11.9348 31.7345 12.0432C31.7157 12.0671 31.6989 12.0926 31.6845 12.1193C31.6126 12.1977 31.5408 12.276 31.4669 12.35C31.3929 12.424 31.3232 12.4849 31.2493 12.5502L31.0164 12.7373C30.8271 12.8744 30.6313 13.0006 30.4311 13.1181C30.3484 13.166 30.2657 13.2117 30.1809 13.2552C30.1352 13.2791 29.7348 13.4423 30.0677 13.3139C29.7105 13.4445 29.4051 13.6873 29.1973 14.0059C29.1148 14.0634 29.0414 14.1331 28.9798 14.2126C28.7251 14.5356 28.4932 14.8759 28.2856 15.231L28.2269 15.3223C27.9918 15.4185 27.7899 15.581 27.6459 15.7902C27.5508 15.9723 27.4679 16.1606 27.3978 16.3537C27.3515 16.5493 27.3463 16.7523 27.3826 16.95C27.1837 17.0446 26.9923 17.1544 26.8103 17.2785C25.594 18.1184 24.8716 19.2369 24.0752 20.1791C23.2788 21.1212 22.3975 21.9416 21.1659 22.0787C19.9343 22.2157 18.6832 21.9329 17.543 21.3889C18.6256 22.1195 19.895 22.5243 21.2007 22.5552C22.5825 22.5944 23.8532 21.7262 24.7671 20.8384C25.7158 19.9462 26.5644 19.0019 27.5393 18.5145C28.5141 18.027 29.5586 18.0967 30.6248 18.4427H30.6444C30.2702 18.7371 29.9934 19.1375 29.8501 19.5916C29.6761 20.1464 29.8371 20.7252 30.0851 21.2235C30.4659 21.9894 31.4146 22.5965 32.2328 22.7706C32.3196 22.7886 32.4076 22.8003 32.4961 22.8054C32.7354 23.0578 32.977 23.2994 33.188 23.5235C34.0062 24.3939 34.9288 25.1707 35.7992 26.0041V25.991C35.7993 25.9147 35.8226 25.8403 35.8662 25.7777C35.9098 25.7151 35.9714 25.6673 36.0429 25.6407C36.3799 25.4932 36.7521 25.4449 37.1156 25.5014C37.4557 25.5467 37.7765 25.6852 38.0426 25.9018C38.0165 25.9606 37.627 25.7081 37.009 25.6994C36.7074 25.6922 36.4102 25.7732 36.1539 25.9323C36.4768 25.9526 36.7855 26.0727 37.0373 26.2761C37.2135 26.4485 37.3164 26.6824 37.3245 26.9288C37.6405 26.9113 37.9442 26.8001 38.1968 26.6095C38.4494 26.4188 38.6397 26.1574 38.7432 25.8583C39.4243 23.9326 38.6671 22.3311 37.8968 20.6882C37.7906 20.5721 37.7223 20.4264 37.701 20.2705C37.6052 20.0529 37.5095 19.8505 37.4181 19.6372C37.6671 19.6572 37.9143 19.695 38.1579 19.7504C38.6238 19.7936 39.078 19.9212 39.4983 20.1268C40.9214 20.5794 42.3379 21.0581 43.5847 20.253C45.06 19.3 44.9925 17.5614 45.876 16.3516C46.0929 16.3868 46.3146 16.3794 46.5288 16.3298C46.6463 16.3842 46.7638 16.4408 46.8791 16.5017C46.9944 16.5626 47.4166 16.8738 47.1402 16.6475C47.267 16.7508 47.4067 16.8371 47.5558 16.9043C47.5754 17.5504 47.4842 18.1951 47.286 18.8104C47.1655 19.069 47.1431 19.3627 47.2232 19.6365C47.3033 19.9104 47.4803 20.1458 47.7212 20.2987C47.7438 20.3786 47.7729 20.4565 47.8082 20.5316C48.0041 20.9559 48.1586 21.341 48.3326 21.6805C48.7265 21.5825 49.1551 21.4912 49.6251 21.415C50.9568 21.8241 52.2363 22.7206 53.5875 23.6628C54.1119 24.0327 54.6603 24.4526 55.2021 24.8051C55.1782 24.7594 55.1564 24.7137 55.1346 24.668L54.521 23.4996C53.7747 21.8959 53.1676 20.2835 53.3286 18.645C53.5767 17.0435 54.3665 15.7488 55.4937 14.9655C57.9764 13.5098 60.0871 14.6587 61.0967 15.1396C61.1424 15.0895 63.1051 16.4451 62.8136 16.8237C62.6612 17.0218 61.8997 16.7324 61.31 16.4843C60.2257 16.4126 59.1409 16.617 58.157 17.0783C57.4432 17.2138 56.7845 17.5549 56.2618 18.0597C55.0563 19.2151 55.3239 21.019 55.8832 22.5291C55.8078 22.556 55.735 22.5895 55.6656 22.6292C55.3181 22.299 54.9472 21.9943 54.5558 21.7175C54.6407 21.9568 54.7386 22.2005 54.8539 22.4464C55.1608 23.2537 55.5481 24.0305 55.9245 24.8595C55.9781 24.9785 56.0224 25.1015 56.0572 25.2273C56.0858 25.3175 56.0831 25.4147 56.0496 25.5031C56.016 25.5916 55.9535 25.6661 55.8723 25.7147C55.7537 25.7289 55.6335 25.7215 55.5176 25.6929C55.2855 25.5918 55.0663 25.4632 54.8648 25.3099C54.4971 25.0488 54.1555 24.779 53.8138 24.5157C52.4582 23.4582 51.1505 22.4747 49.8971 21.8915C49.4245 21.6864 48.8914 21.6693 48.4066 21.8437C48.5766 22.1785 48.8184 22.4717 49.1148 22.7023C49.4112 22.9329 49.7549 23.0951 50.1213 23.1775C50.9612 23.4103 51.6771 23.3799 52.4648 23.8172C53.2522 24.2581 53.9287 24.8728 54.4427 25.6146C55.1847 26.7026 56.9124 26.4458 57.1365 25.1642C57.1713 25.2316 57.2845 25.1315 57.4825 24.8639C57.597 24.7714 57.6967 24.6621 57.7784 24.5397C60.6224 24.2176 63.3771 25.9279 66.2102 24.9509Z" fill="#ED2024"/>
<path d="M32.3785 22.6292C32.3437 22.6488 32.2676 22.3638 31.9433 22.157C31.6191 21.9503 30.999 21.8002 30.7705 21.2018C30.3353 20.0137 31.049 19.3 30.975 19.0629C31.0012 19.0629 30.9925 18.7909 31.1578 18.7256C31.3232 18.6603 31.4451 19.0846 31.4124 19.0846C31.4864 19.6699 30.7901 20.0137 30.9772 20.9951C31.0773 21.5151 31.5887 21.7697 31.9716 22.0113C32.0785 22.0805 32.1699 22.1712 32.2399 22.2776C32.31 22.3839 32.3572 22.5037 32.3785 22.6292Z" fill="white"/>
<path d="M31.6551 19.9832C31.8727 19.9484 32.0902 20.2508 32.1621 20.6577C32.2339 21.0646 32.112 21.4259 31.8988 21.4607C31.6855 21.4955 31.4636 21.193 31.3918 20.7839C31.32 20.3749 31.4418 20.018 31.6551 19.9832Z" fill="white"/>
<path d="M32.9173 14.7677C32.715 14.9048 32.4386 14.6284 32.4386 14.6284C32.2977 14.4587 32.1745 14.2749 32.0709 14.0801C31.9276 14.2564 31.8507 14.4774 31.8533 14.7046C31.7815 15.2333 31.6466 15.9557 31.7858 16.2887C32.0034 16.7239 32.1362 17.0154 32.1057 17.0328C32.0665 17.1177 31.1983 16.0689 31.4529 14.796C31.4629 14.5028 31.5015 14.2113 31.5682 13.9256C31.677 13.7776 31.7554 13.0552 32.4778 13.5274C32.674 13.7499 32.8414 13.9963 32.9761 14.2607C32.9761 14.2607 33.1197 14.6306 32.9173 14.7677Z" fill="white"/>
<path d="M17.352 41.5338C17.2941 41.5352 17.237 41.5486 17.1845 41.573C16.7188 41.8319 16.6992 41.8319 16.1422 41.8319H14.0359C13.4223 41.8319 13.2547 41.684 13.2547 41.1791V37.9761C13.2547 37.4169 13.4027 37.2124 13.8313 37.2124C14.7256 37.2124 14.7996 37.232 15.0063 37.3799C15.2131 37.5279 15.2239 37.5497 15.3219 37.5497C15.509 37.5497 15.583 37.4169 15.583 37.1384V35.7958C15.583 35.4238 15.4894 35.2366 15.3023 35.2366C15.2283 35.2366 15.1913 35.2562 15.0237 35.4063C14.8062 35.5935 14.7256 35.6109 14.0555 35.6109C13.3853 35.6109 13.2547 35.4977 13.2547 34.9211C13.2547 34.1399 13.2547 34.0507 13.3461 33.8962C13.4592 33.6917 13.5637 33.6547 14.0729 33.6547H15.7505C15.8534 33.6401 15.9582 33.6512 16.0558 33.6869C16.1533 33.7226 16.2406 33.7818 16.3097 33.8592C16.3948 33.9301 16.4981 33.9753 16.6078 33.9898C16.7362 33.9898 16.8864 33.8418 16.9603 33.6547L17.3346 32.4797C17.3536 32.4196 17.366 32.3576 17.3716 32.2947C17.3716 32.1076 17.315 32.0771 16.9603 32.0771H11.5205C11.3029 32.0771 11.1854 32.1533 11.1854 32.3187C11.1925 32.3994 11.2253 32.4756 11.2789 32.5363C11.35 32.5959 11.4129 32.6647 11.4661 32.7408C11.5019 32.8429 11.5203 32.9503 11.5205 33.0585V42.4303C11.5031 42.6348 11.4835 42.7284 11.4095 42.8046C11.168 43.0657 11.168 43.0657 11.168 43.1767C11.168 43.3616 11.2789 43.4378 11.5205 43.4378H16.6622C17.0343 43.4378 17.1279 43.3812 17.2215 43.0265L17.5391 42.0212C17.5669 41.9305 17.5851 41.8372 17.5935 41.7427C17.5885 41.6832 17.5605 41.6281 17.5153 41.5891C17.4702 41.55 17.4116 41.5302 17.352 41.5338Z" fill="white"/>
<path d="M24.7289 41.534C24.6045 41.5559 24.4851 41.6002 24.3764 41.6646C24.1636 41.794 23.9152 41.8527 23.667 41.8321H21.861C21.1712 41.8321 21.0776 41.7581 21.0776 41.1075V33.6745C21.0776 32.8346 21.0776 32.8346 21.1712 32.704C21.4127 32.4451 21.4127 32.4451 21.4127 32.3123C21.4127 32.1796 21.3018 32.0708 21.0776 32.0708H19.3369C19.1193 32.0708 19.0018 32.147 19.0018 32.3123C19.0068 32.3935 19.0398 32.4705 19.0953 32.5299L19.2825 32.7345C19.3181 32.8434 19.3364 32.9572 19.3369 33.0717V42.4283C19.3195 42.6329 19.2999 42.7264 19.2259 42.8026C18.9844 43.0637 18.9844 43.0637 18.9844 43.1747C18.9844 43.3596 19.0953 43.4358 19.3369 43.4358H24.1805C24.4417 43.4358 24.5178 43.3792 24.6157 43.0811L24.9334 42.1128C24.9699 42.0237 24.9891 41.9284 24.99 41.8321C24.9926 41.7585 24.967 41.6867 24.9185 41.6313C24.87 41.576 24.8022 41.5412 24.7289 41.534Z" fill="white"/>
<path d="M22.0266 32.9651C22.0178 33.0526 21.9855 33.1361 21.933 33.2067C21.6719 33.507 21.6719 33.5244 21.6719 33.7289V41.1815C21.6719 41.4231 21.748 41.5166 21.9526 41.5166C22.0091 41.5187 22.0656 41.5121 22.1201 41.497V34.3795C22.1201 33.8399 22.1201 33.8399 22.3051 33.6332C22.3821 33.5498 22.4341 33.4465 22.4552 33.3351C22.4552 33.2611 22.3986 33.2045 22.02 32.8716L22.0266 32.9651Z" fill="#ED2024"/>
<path d="M14.1435 41.4969H14.2915V38.7313C14.2915 38.32 14.3285 38.283 14.7006 38.283H15.1662C15.3265 38.2714 15.4855 38.3178 15.6145 38.4136C16.1019 38.7313 16.1019 38.7313 16.2324 38.7313C16.5131 38.7313 16.6241 38.5268 16.6241 37.9675V36.8687C16.6241 36.4596 16.6241 36.4335 16.2716 36.0875L16.1585 35.9744C16.182 36.1474 16.1886 36.3223 16.178 36.4966V37.652C16.178 38.0045 16.0845 38.1721 15.8995 38.1721C15.7865 38.1551 15.6816 38.1034 15.5992 38.0241C15.3816 37.8065 15.3577 37.8065 15.0052 37.8065H14.4438C14.0347 37.8065 13.8672 37.9567 13.8672 38.3287V41.0487C13.8672 41.4055 13.9259 41.4969 14.1435 41.4969Z" fill="#ED2024"/>
<path d="M14.1435 35.276C14.1936 35.2769 14.2434 35.2703 14.2915 35.2564C14.2915 34.7363 14.3285 34.6972 14.8311 34.6972H16.1737C16.6198 34.6972 16.6763 34.7167 16.9549 34.9148C17.0576 35.008 17.1904 35.0613 17.3291 35.0649C17.438 35.0658 17.5438 35.029 17.6287 34.9608C17.7135 34.8926 17.7722 34.7971 17.7948 34.6906L18.1473 33.3677C18.1843 33.2925 18.2036 33.2099 18.2039 33.1261C18.2039 32.939 18.0363 32.7736 17.7948 32.6431C17.8111 32.6913 17.8235 32.7408 17.8318 32.791C17.8318 32.8476 17.7948 32.9956 17.7752 33.1087L17.4771 34.077C17.3465 34.4861 17.2725 34.5797 17.0854 34.5797C17.0325 34.5782 16.9805 34.5659 16.9326 34.5434C16.8846 34.5209 16.8419 34.4888 16.8069 34.4491C16.5893 34.2641 16.5893 34.2641 16.1737 34.2641H14.5374C13.9608 34.2641 13.8672 34.3555 13.8672 34.8408C13.8672 35.1628 13.9412 35.276 14.1435 35.276Z" fill="#ED2024"/>
<path d="M25.4174 44.0319L25.7351 43.007C25.7648 42.9101 25.783 42.8101 25.7895 42.7089C25.7895 42.4913 25.6981 42.3542 25.4174 42.2041C25.4168 42.4263 25.3793 42.6469 25.3065 42.8569L25.0889 43.5641C24.9583 43.9753 24.8713 44.0319 24.3621 44.0319H20.5368C19.9036 44.0319 19.8666 44.0319 19.6055 43.9187L19.9232 44.2734C20.0885 44.441 20.2387 44.491 20.6869 44.491H24.7102C25.1019 44.4975 25.3065 44.367 25.4174 44.0319Z" fill="#ED2024"/>
<path d="M18.4135 42.6893C18.4135 42.5217 18.3396 42.4282 18.0415 42.1497C18.055 42.2044 18.0609 42.2608 18.0589 42.3172C18.0597 42.4235 18.0473 42.5295 18.0219 42.6327L17.6868 43.564C17.5562 43.9383 17.4082 44.0319 17.034 44.0319H12.7321C12.025 44.0319 12.025 44.0319 11.7812 43.9013C12.0989 44.3844 12.3231 44.4975 12.8997 44.4975H17.2516C17.7542 44.4975 17.8478 44.4235 18.0327 43.9013L18.3678 42.9504C18.3998 42.8671 18.4153 42.7785 18.4135 42.6893Z" fill="#ED2024"/>
<path d="M61.2512 44.665C61.9998 44.665 62.9485 44.4605 63.2836 44.2298C63.4625 44.114 63.589 43.9328 63.6361 43.725L64.0277 42.4608C64.0459 42.3997 64.0583 42.337 64.0647 42.2736C64.0469 42.1483 63.9976 42.0295 63.9215 41.9283C63.8455 41.8271 63.745 41.7468 63.6295 41.6948C63.663 41.7454 63.6826 41.804 63.6861 41.8645C63.6807 42.0024 63.6618 42.1395 63.6295 42.2736L63.1943 43.4095C63.1507 43.6095 63.0294 43.7841 62.8571 43.8947C62.3055 44.1232 61.7133 44.2372 61.1163 44.2298C59.7564 44.2298 58.8076 43.8186 57.5391 42.6827C58.3463 43.9535 59.6693 44.665 61.2512 44.665Z" fill="#ED2024"/>
<path d="M46.5381 42.5413C46.5033 42.4108 46.4445 42.2237 46.4075 42.0757L44.5819 33.3567L44.5449 33.1521C44.528 33.0658 44.5157 32.9786 44.5079 32.891C44.5112 32.8129 44.5369 32.7373 44.5819 32.6734C44.6508 32.5579 44.7015 32.4324 44.732 32.3013C44.732 32.1534 44.5645 32.0837 44.1924 32.0837H41.6574C41.2853 32.0837 41.1374 32.1599 41.1374 32.3644C41.1498 32.4909 41.194 32.6121 41.2658 32.7169C41.3179 32.8155 41.3498 32.9235 41.3593 33.0346C41.3497 33.1475 41.3315 33.2596 41.3049 33.3697L39.4967 41.9016C39.4552 42.1431 39.3926 42.3805 39.3096 42.611C39.2216 42.7102 39.1409 42.8157 39.0681 42.9265C38.9985 43.0048 38.9532 43.1015 38.9375 43.205C38.9375 43.3921 39.0681 43.4487 39.4967 43.4487H40.8393C41.2745 43.4487 41.4333 43.3921 41.4333 43.205C41.4247 43.1143 41.3856 43.0291 41.3223 42.9635C41.2357 42.8484 41.1782 42.714 41.1548 42.5718C41.1648 42.4973 41.1838 42.4242 41.2114 42.3542L41.2484 42.1845L41.9969 38.629C42.11 38.0502 42.295 37.9022 42.9108 37.9022C43.7311 37.9022 43.7485 37.9218 43.9726 38.9641L44.6254 42.1497C44.6697 42.3138 44.6953 42.4824 44.7016 42.6523C44.703 42.7131 44.6829 42.7724 44.645 42.8199C44.4405 43.0636 44.4405 43.0636 44.4405 43.1745C44.4405 43.3791 44.534 43.4357 44.9431 43.4357H46.3771C46.7296 43.4357 46.9167 43.3421 46.9167 43.1745C46.9118 43.0829 46.8721 42.9965 46.8057 42.933C46.7054 42.8104 46.6159 42.6794 46.5381 42.5413ZM42.9434 36.4683C42.5887 36.4683 42.4408 36.3943 42.4408 36.2072C42.439 36.1565 42.4448 36.1059 42.4582 36.057L42.4952 35.9286L42.7563 34.8276C42.7955 34.6427 42.8499 34.5665 42.9434 34.5665C43.074 34.5665 43.0936 34.6035 43.161 34.9212L43.3656 35.8895C43.3945 35.9932 43.4128 36.0997 43.42 36.2072C43.4265 36.3943 43.2785 36.4683 42.9434 36.4683Z" fill="white"/>
<path d="M62.9685 41.1617C62.8606 41.1768 62.7613 41.2292 62.6878 41.3097C62.0002 41.8885 61.9045 41.9255 61.1973 41.9255C59.3717 41.9255 58.1988 40.3044 58.1988 37.7542C58.1988 35.204 59.1671 33.6351 60.7121 33.6351C60.9001 33.6255 61.0875 33.6633 61.2571 33.745C61.4267 33.8268 61.573 33.9499 61.6825 34.103C61.8675 34.3815 61.9001 34.4185 62.0176 34.4185C62.183 34.4185 62.3331 34.2705 62.4093 34.0464L62.7618 32.9279C62.7824 32.8423 62.7948 32.7548 62.7988 32.6668C62.7988 32.2316 61.9415 31.9031 60.8056 31.9031C58.2162 31.9031 56.3906 34.3249 56.3906 37.7542C56.3906 41.2183 58.3272 43.6575 61.0863 43.6575C62.0546 43.6575 62.5943 43.4399 62.7618 42.9699L63.1361 41.7775C63.1786 41.6766 63.2037 41.5692 63.21 41.4598C63.2136 41.3891 63.1909 41.3196 63.1464 41.2645C63.1018 41.2095 63.0384 41.1729 62.9685 41.1617Z" fill="white"/>
<path d="M71.0357 32.704C71.2751 32.445 71.2751 32.445 71.2751 32.3123C71.2751 32.1796 71.1641 32.0708 70.94 32.0708H69.1992C68.9577 32.0708 68.8467 32.1469 68.8467 32.3123C68.8508 32.3937 68.884 32.4709 68.9403 32.5299C68.9968 32.5865 69.0512 32.643 69.1274 32.7344C69.1685 32.8431 69.1912 32.9578 69.1949 33.0739V35.0105C69.1949 35.5501 69.1035 35.6632 68.6182 35.6632H67.2953C66.6425 35.6067 66.6077 35.5893 66.6077 35.0105V33.6701C66.6077 32.8302 66.6077 32.8302 66.699 32.6996C66.9428 32.4407 66.9428 32.4407 66.9428 32.3079C66.9428 32.1752 66.8296 32.0664 66.6077 32.0664H64.843C64.6254 32.0664 64.5079 32.1426 64.5079 32.3079C64.5119 32.3893 64.5451 32.4666 64.6014 32.5255C64.6362 32.5821 64.7124 32.6387 64.7864 32.7301C64.8225 32.8412 64.8416 32.9571 64.843 33.0739V42.4304C64.8234 42.635 64.806 42.7286 64.7298 42.8047C64.4883 43.0658 64.4883 43.0658 64.4883 43.1942C64.4883 43.3618 64.6014 43.4379 64.843 43.4379H66.5946C66.8122 43.4379 66.9297 43.3618 66.9297 43.1942C66.9251 43.1129 66.8919 43.0359 66.8361 42.9766L66.7426 42.8635L66.649 42.7721C66.6134 42.6632 66.595 42.5494 66.5946 42.4348V38.0133C66.5946 37.3801 66.686 37.2865 67.3192 37.2865H68.4572C68.9403 37.3061 68.9403 37.3061 69.0338 37.3997C69.1644 37.5302 69.1818 37.6042 69.1818 38.0329V42.4304C69.1644 42.635 69.1448 42.7286 69.0708 42.8047C68.8293 43.0658 68.8293 43.0832 68.8293 43.1942C68.8293 43.3618 68.9403 43.4379 69.1818 43.4379H70.9226C71.1402 43.4379 71.2577 43.3618 71.2577 43.1942C71.2548 43.1129 71.2223 43.0355 71.1663 42.9766L70.9791 42.7721C70.9476 42.661 70.933 42.5459 70.9356 42.4304V33.6744C70.9356 32.8345 70.9356 32.8345 71.0357 32.704Z" fill="white"/>
<path d="M76.7719 31.9031C74.35 31.9031 72.9727 33.9898 72.9727 37.6236C72.9727 41.4424 74.2935 43.6401 76.5869 43.6401C78.9326 43.6401 80.286 41.4228 80.286 37.6411C80.2925 34.0638 78.9696 31.9031 76.7719 31.9031ZM76.6239 41.9124C75.3923 41.9124 74.7613 40.5525 74.7613 37.9261C74.7613 35.0756 75.3923 33.6395 76.6413 33.6395C77.9469 33.6395 78.5235 34.9081 78.5235 37.7586C78.5235 40.5481 77.9099 41.9081 76.6239 41.9081V41.9124Z" fill="white"/>
<path d="M37.0353 37.8825C37.279 37.6236 37.279 37.6236 37.279 37.493C37.279 37.3233 37.1854 37.2493 36.9417 37.2493H35.201C34.9594 37.2493 34.8659 37.3233 34.8659 37.493C34.8695 37.5745 34.9028 37.6519 34.9594 37.7106C35.0265 37.7751 35.0891 37.8442 35.1466 37.9173C35.18 38.026 35.1983 38.1388 35.201 38.2524V41.0638C35.201 41.7535 35.0704 41.9037 34.5308 41.9037C33.0076 41.9037 32.1263 40.3936 32.1263 37.7868C32.1263 35.2518 33.0772 33.6307 34.5678 33.6307C34.7666 33.6191 34.9654 33.6555 35.1472 33.737C35.329 33.8184 35.4885 33.9424 35.6122 34.0986C35.7798 34.3401 35.8298 34.3771 35.9647 34.3771C36.0996 34.3771 36.2063 34.2835 36.2824 34.0594L36.6719 32.904C36.7065 32.8219 36.7257 32.7341 36.7285 32.645C36.7285 32.2098 35.8907 31.8987 34.7353 31.8987C32.0894 31.8987 30.3203 34.2661 30.3203 37.7868C30.3203 39.4623 30.712 40.9158 31.4562 41.9581C31.8169 42.4653 32.2913 42.8812 32.8414 43.1725C33.3915 43.4638 34.002 43.6224 34.6243 43.6357C35.7798 43.6357 37.2703 42.9655 37.2703 42.4629C37.2703 42.3867 37.2507 42.3323 37.2137 42.3128L37.0636 42.1822L36.9526 41.9951C36.9337 41.8596 36.9271 41.7227 36.933 41.586V38.853C36.9417 38.0131 36.9417 38.0131 37.0353 37.8825Z" fill="white"/>
<path d="M54.4566 32.704C54.6982 32.4451 54.6982 32.4451 54.6982 32.3123C54.6982 32.1796 54.6046 32.0708 54.3631 32.0708H52.6593C52.4156 32.0708 52.3046 32.147 52.3046 32.3123C52.3096 32.3935 52.3427 32.4705 52.3982 32.5299C52.4647 32.5936 52.5265 32.6619 52.5831 32.7345C52.6287 32.8421 52.6545 32.9571 52.6593 33.0739V41.386C52.2868 41.7106 51.8128 41.8952 51.3189 41.9083C51.0949 41.9108 50.8746 41.8512 50.6825 41.7359C50.4904 41.6207 50.3341 41.4543 50.2309 41.2555C50.0264 40.9204 50.0134 40.7528 50.0134 39.8759V33.6745C50.0134 32.8346 50.0134 32.8346 50.1069 32.704C50.3485 32.4451 50.3485 32.4451 50.3485 32.3123C50.3485 32.1796 50.2549 32.0708 50.0134 32.0708H48.2726C48.0311 32.0708 47.9375 32.147 47.9375 32.3123C47.9416 32.3937 47.9748 32.471 48.0311 32.5299L48.1246 32.6431L48.2182 32.7345C48.2538 32.8434 48.2722 32.9572 48.2726 33.0717V39.3298C48.2726 41.2881 48.3466 41.695 48.8144 42.4218C49.2822 43.1486 50.3049 43.6338 51.4038 43.6338C52.7442 43.6338 53.9388 42.981 54.5132 41.9387C54.6098 41.8079 54.6679 41.6526 54.6808 41.4905C54.6765 41.391 54.6448 41.2946 54.5894 41.212C54.3718 40.8399 54.3718 40.8399 54.3718 40.2981V33.6745C54.3631 32.8346 54.3631 32.8346 54.4566 32.704Z" fill="white"/>
<path d="M36.7018 34.7167C36.6278 34.9343 36.5146 35.0518 36.3841 35.0518C36.2927 35.0518 36.2165 34.9952 36.1055 34.8473C35.9596 34.6356 35.7647 34.4623 35.5374 34.3422C35.3101 34.2221 35.0571 34.1587 34.8 34.1575C33.4944 34.1575 32.8242 35.4239 32.8242 37.8566C32.8242 39.8868 33.3269 41.2663 34.1102 41.4165C33.4204 40.3154 33.1963 39.4581 33.1963 37.9872C33.1963 35.8112 33.7751 34.5775 34.8 34.5775C35.283 34.5775 35.6573 34.795 36.1208 35.3978C36.2905 35.6154 36.3819 35.6785 36.532 35.6785C36.717 35.6785 36.8301 35.5653 36.9411 35.2672L37.5003 33.7963C37.5442 33.6958 37.5692 33.5881 37.5743 33.4786C37.5743 33.3111 37.5003 33.2001 37.1848 32.939C37.1984 32.9937 37.2042 33.0501 37.2022 33.1065C37.1991 33.2742 37.1613 33.4394 37.0913 33.5917L36.7018 34.7167Z" fill="#ED2024"/>
<path d="M38.1908 38.7313C38.3018 38.6007 38.3388 38.5137 38.3388 38.4506C38.3388 38.3875 38.2844 38.32 37.9036 37.9675V38.0589C37.8987 38.1476 37.8668 38.2326 37.8122 38.3026C37.5511 38.6181 37.5511 38.6181 37.5511 38.8227V42.2694C37.5721 42.4255 37.6295 42.5746 37.7186 42.7046C37.7518 42.7679 37.7711 42.8377 37.7752 42.9091C37.7752 43.0397 37.6621 43.1898 37.4379 43.3573C36.6662 43.9405 35.7245 44.2547 34.7572 44.2517C33.3602 44.2517 32.2592 43.712 31.2539 42.537C31.7935 43.7664 33.2841 44.6803 34.7354 44.6803C36.2586 44.6803 38.2757 43.7664 38.2757 43.0788C38.2677 42.9585 38.2287 42.8423 38.1625 42.7416C38.0711 42.5747 38.0142 42.3912 37.995 42.2019V39.6343C38.0037 38.9489 38.0037 38.9489 38.1908 38.7313Z" fill="#ED2024"/>
<path d="M71.4075 44.0318H70.2325C69.7668 44.0318 69.6928 44.0123 69.4883 43.9187C69.8778 44.4235 70.0105 44.4975 70.4936 44.4975H71.8535C72.1712 44.4975 72.3562 44.3669 72.3562 44.1428C72.34 44.0253 72.3024 43.9117 72.2452 43.8077C71.9841 43.2681 71.9841 43.2681 71.9841 42.4282V34.3989C71.9841 33.8419 71.9841 33.8419 72.1712 33.6352C72.2469 33.5512 72.2981 33.4481 72.3192 33.3371C72.3192 33.2631 72.2822 33.2065 71.8535 32.854V32.928C71.8564 32.9756 71.8496 33.0233 71.8335 33.0681C71.8174 33.113 71.7924 33.1542 71.76 33.1891C71.5424 33.5068 71.5424 33.5242 71.5424 33.7113V43.1549C71.5636 43.2345 71.6014 43.3086 71.6533 43.3725C71.8579 43.5901 71.8709 43.6511 71.8709 43.7446C71.8731 43.9383 71.723 44.0318 71.4075 44.0318Z" fill="#ED2024"/>
<path d="M76.3767 41.46C76.0025 40.7702 75.7979 39.5974 75.7979 38.0895C75.7979 36.7295 75.9655 35.5545 76.2462 35.0888C76.3498 34.914 76.5009 34.7721 76.6819 34.6797C76.863 34.5873 77.0665 34.548 77.2689 34.5666C77.3816 34.5653 77.4943 34.5718 77.6061 34.5862C77.5521 34.4499 77.4561 34.3344 77.3322 34.2562C77.2082 34.1779 77.0626 34.1411 76.9164 34.151C75.8915 34.151 75.4062 35.4 75.4062 37.9894C75.4128 40.0369 75.7479 41.2359 76.3767 41.46Z" fill="#ED2024"/>
<path d="M62.7817 34.6426C62.6512 34.9407 62.538 35.0778 62.39 35.0778C62.3139 35.0778 62.2225 35.0016 62.0919 34.8602C61.6437 34.3576 61.2912 34.1704 60.7864 34.1704C59.5374 34.1704 58.8672 35.476 58.8672 37.8695C58.8672 39.4514 59.1827 40.4959 59.8355 40.905C59.4641 40.1231 59.2777 39.1171 59.2763 37.8869C59.2763 35.7458 59.8551 34.5708 60.8973 34.5708C61.363 34.5708 61.5675 34.6839 62.1812 35.3541C62.3509 35.5413 62.4814 35.6348 62.6163 35.6348C62.8209 35.6348 62.9884 35.4651 63.119 35.093L63.639 33.7526C63.6589 33.6992 63.6657 33.6417 63.6586 33.5851C63.6606 33.5116 63.6467 33.4385 63.6178 33.3709C63.5889 33.3033 63.5456 33.2427 63.4911 33.1934L63.2735 32.9758C63.3012 33.0449 63.3138 33.1191 63.3105 33.1934C63.3105 33.3414 63.3105 33.361 63.1625 33.7157L62.7817 34.6426Z" fill="#ED2024"/>
<path d="M67.5326 32.8735V32.9453C67.5369 33.0413 67.5033 33.1351 67.439 33.2065C67.1953 33.5067 67.1953 33.5241 67.1953 33.7287V34.9581C67.1953 35.2562 67.2519 35.3302 67.4564 35.3302C67.5135 35.3322 67.5706 35.3263 67.6262 35.3128V34.3793C67.6262 33.8397 67.6261 33.8397 67.7915 33.6329C67.8693 33.5502 67.9215 33.4466 67.9417 33.3348C67.9417 33.263 67.8677 33.189 67.5326 32.8735Z" fill="#ED2024"/>
<path d="M81.3528 37.7151C81.3528 35.685 80.8872 34.288 79.7883 33.0586L79.8993 33.2631C80.0916 33.5924 80.2603 33.9349 80.4041 34.288C80.7905 35.3442 80.9801 36.4622 80.9633 37.5867C80.9739 38.9156 80.7401 40.2351 80.2736 41.4795C79.5272 43.3051 78.2804 44.2364 76.6223 44.2364C75.5235 44.2364 74.7771 43.8644 73.8828 42.8765C74.1513 43.4169 74.5662 43.871 75.0801 44.1873C75.5941 44.5035 76.1865 44.669 76.7899 44.6651C79.5468 44.6651 81.3528 41.8886 81.3528 37.7151Z" fill="#ED2024"/>
<path d="M68.0522 38.3115H68.9096V38.1439C68.9096 37.9394 68.8552 37.8828 68.6484 37.8828H67.6257C67.2885 37.8828 67.1906 37.996 67.1906 38.405V43.1551C67.21 43.2358 67.2488 43.3105 67.3037 43.3727C67.4713 43.5903 67.5104 43.6512 67.5104 43.7644C67.5104 43.9319 67.3603 44.0255 67.0622 44.0255H65.9633C65.5151 44.0255 65.4411 44.0059 65.2344 43.9124C65.6282 44.4172 65.7392 44.4912 66.2049 44.4912H67.4712C67.7868 44.4912 67.9739 44.3606 67.9739 44.1365C67.9577 44.0214 67.927 43.9088 67.8825 43.8014C67.6214 43.2618 67.6214 43.2618 67.6214 42.4414V38.7314C67.6257 38.368 67.6823 38.3115 68.0522 38.3115Z" fill="#ED2024"/>
<path d="M47.3563 42.3173L45.7178 34.6602C45.6413 34.393 45.591 34.119 45.5677 33.842C45.5709 33.75 45.5971 33.6602 45.6438 33.5809C45.6782 33.4969 45.703 33.4093 45.7178 33.3198C45.7132 33.28 45.7006 33.2415 45.6808 33.2066L45.4371 32.9281L45.3457 32.8171C45.3719 32.8619 45.384 32.9134 45.3806 32.9651C45.3806 33.0217 45.3632 33.0587 45.2326 33.2632C45.1421 33.3947 45.0963 33.5519 45.102 33.7114C45.1058 33.8174 45.1182 33.923 45.139 34.027L47.0582 42.7308C47.0606 42.9155 47.1267 43.0939 47.2453 43.2356C47.5434 43.6447 47.5434 43.6447 47.5434 43.7186C47.5434 43.9058 47.3367 44.0363 47.0212 44.0363H45.8092C45.5798 44.0578 45.3487 44.0188 45.139 43.9232C45.4197 44.428 45.5307 44.502 46.1269 44.502H47.4325C47.8046 44.502 48.0657 44.3344 48.0657 44.0668C48.0552 43.9041 47.9969 43.7482 47.8981 43.6185C47.6136 43.2358 47.4275 42.7889 47.3563 42.3173Z" fill="#ED2024"/>
<path d="M51.7705 44.6652C52.4742 44.6446 53.1631 44.4583 53.7812 44.1214C54.3994 43.7846 54.9294 43.3066 55.3282 42.7264C55.4702 42.5499 55.5605 42.3375 55.5893 42.1128C55.5833 42.0394 55.5709 41.9666 55.5523 41.8952C55.4413 41.5601 55.4413 41.5601 55.4413 40.8704V34.3425C55.4413 33.8573 55.4413 33.8573 55.6263 33.6332C55.7109 33.5554 55.7643 33.4494 55.7764 33.3351C55.7764 33.2611 55.7764 33.2611 55.3412 32.8716V32.9434C55.3444 33.0392 55.3109 33.1325 55.2476 33.2045C55.0061 33.5048 55.0061 33.5222 55.0061 33.7267V41.0292C54.9847 41.2253 55.0101 41.4236 55.0801 41.608C55.1171 41.756 55.1541 41.8495 55.1541 41.8865C55.1541 42.0737 54.9474 42.4262 54.5775 42.8374C54.1984 43.2738 53.7306 43.6241 53.2052 43.8651C52.6799 44.106 52.1091 44.2319 51.5311 44.2344C50.6014 44.2238 49.702 43.902 48.9766 43.3205C49.3 43.7526 49.7228 44.1004 50.2091 44.3344C50.6954 44.5685 51.231 44.682 51.7705 44.6652Z" fill="#ED2024"/>
<path d="M43.6132 38.7313C43.6132 38.5637 43.5022 38.5137 43.2041 38.5137C42.7558 38.5137 42.6079 38.6442 42.4947 39.1665L41.731 42.7633C41.7002 42.8726 41.6819 42.985 41.6766 43.0984C41.6793 43.1872 41.7123 43.2724 41.7701 43.3399C42.0117 43.638 42.0117 43.6554 42.0117 43.7751C42.0117 43.9427 41.8245 44.0362 41.4894 44.0362H40.2796C40.0441 44.0506 39.8084 44.012 39.5898 43.9231L39.8879 44.2582C40.0729 44.4453 40.2426 44.5019 40.6887 44.5019H41.8441C42.3098 44.5019 42.5143 44.3713 42.5143 44.0667C42.503 43.9645 42.4782 43.8642 42.4403 43.7686C42.1966 43.3334 42.1966 43.3203 42.1966 43.1158C42.199 42.9676 42.2247 42.8208 42.2728 42.6806L42.9604 39.4384C43.054 39.0033 43.0931 38.9554 43.4086 38.9554H43.6132V38.7313Z" fill="#ED2024"/>
<path d="M51.0654 34.3445C51.0654 33.8418 51.0654 33.8418 51.2329 33.6351C51.3094 33.5517 51.3608 33.4484 51.3809 33.337C51.3809 33.263 51.3069 33.189 50.9718 32.8735V32.9453C50.9761 33.0413 50.9425 33.1351 50.8782 33.2065C50.6367 33.5067 50.6367 33.5241 50.6367 33.7287V40.8636C50.6367 41.2749 50.6933 41.3489 51.0719 41.4424L51.0654 34.3445Z" fill="#ED2024"/>
</svg>
